<svg width="20" height="18" viewBox="0 0 20 18" fill="none" xmlns="http://www.w3.org/2000/svg">
<path fill-rule="evenodd" clip-rule="evenodd" d="M1.06511 1.38462H18.5753C18.9471 1.38462 19.2488 1.07446 19.2488 0.692308C19.2488 0.310154 18.9471 0 18.5753 0H1.06511C0.6947 0 0.391638 0.310154 0.391638 0.692308C0.391638 1.07446 0.6947 1.38462 1.06511 1.38462ZM18.5753 5.53846H6.45286C6.08245 5.53846 5.77939 5.84862 5.77939 6.23077C5.77939 6.61292 6.08245 6.92308 6.45286 6.92308H18.5753C18.9471 6.92308 19.2488 6.61292 19.2488 6.23077C19.2488 5.84723 18.9471 5.53846 18.5753 5.53846ZM18.5753 11.0755H1.06511C0.6947 11.0755 0.391638 11.3856 0.391638 11.7678C0.391638 12.1499 0.6947 12.4601 1.06511 12.4601H18.5753C18.9471 12.4601 19.2488 12.1499 19.2488 11.7678C19.2488 11.3856 18.9471 11.0755 18.5753 11.0755ZM18.5753 16.6154H8.47327C8.10286 16.6154 7.7998 16.9255 7.7998 17.3077C7.7998 17.6898 8.10286 18 8.47327 18H18.5753C18.9471 18 19.2488 17.6898 19.2488 17.3077C19.2488 16.9255 18.9471 16.6154 18.5753 16.6154Z" fill="#2A2A2A"/>
</svg>
