<svg width="18" height="16" viewBox="0 0 18 16" fill="none" xmlns="http://www.w3.org/2000/svg">
<path fill-rule="evenodd" clip-rule="evenodd" d="M9 16C9 16 0 7.64952 0 4.68445C0 1.52744 1.64588 0 5.0625 0C6.75 0 9 2.5811 9 2.5811C9 2.5811 11.25 0 12.9375 0C16.3541 0 18 1.52644 18 4.68445C18 7.64952 9 16 9 16ZM12.9375 1.03264C12.0499 1.03264 9 3.61179 9 3.61179C9 3.61179 5.949 1.03264 5.0625 1.03264C2.07225 1.03264 1.125 2.15932 1.125 4.82149C1.125 7.32371 9 14.4504 9 14.4504C9 14.4504 16.875 7.32371 16.875 4.82149C16.875 2.15932 15.9277 1.03264 12.9375 1.03264Z" fill="#2A2A2A"/>
</svg>
