<svg width="20" height="20" viewBox="0 0 20 20" fill="none" xmlns="http://www.w3.org/2000/svg">
<path d="M8.76951 15.4158C4.98534 15.4158 1.92197 12.3452 1.92197 8.5683C1.92197 4.78415 4.98534 1.72079 8.76951 1.72079C12.5537 1.72079 15.6171 4.78415 15.6171 8.5683C15.6171 12.3452 12.5537 15.4158 8.76951 15.4158ZM19.0985 18.3926L14.3629 13.6571C15.5882 12.3092 16.3378 10.5289 16.3378 8.5683C16.3378 4.38772 12.9501 1 8.76951 1C4.5889 1 1.20117 4.38772 1.20117 8.5683C1.20117 12.7489 4.5889 16.1366 8.76951 16.1366C10.7301 16.1366 12.5105 15.3798 13.8584 14.1616L18.5939 18.8973C18.7309 19.0342 18.9615 19.0342 19.0985 18.8973C19.2354 18.7531 19.2354 18.5295 19.0985 18.3926Z" fill="#2A2A2A" stroke="#2A2A2A" stroke-width="0.5"/>
</svg>
