<svg width="15" height="18" viewBox="0 0 15 18" fill="none" xmlns="http://www.w3.org/2000/svg">
<path fill-rule="evenodd" clip-rule="evenodd" d="M13.2009 16.8011C13.2009 13.4865 10.5139 10.8007 7.20047 10.8007C3.88585 10.8007 1.20008 13.4865 1.20008 16.8011V18H0V16.8011C0 13.7577 1.89012 11.1607 4.55789 10.1082C2.91259 9.18297 1.80012 7.42248 1.80012 5.40035C1.80012 2.41816 4.21827 0 7.20047 0C10.1827 0 12.6008 2.41816 12.6008 5.40035C12.6008 7.42248 11.4871 9.18177 9.84184 10.1082C12.5108 11.1607 14.4009 13.7577 14.4009 16.8011V18H13.2009V16.8011ZM11.4007 5.40035C11.4007 3.0806 9.52022 1.20008 7.20047 1.20008C4.88072 1.20008 3.0002 3.0806 3.0002 5.40035C3.0002 7.7201 4.88072 9.60063 7.20047 9.60063C9.52022 9.60063 11.4007 7.7201 11.4007 5.40035Z" fill="#2A2A2A"/>
</svg>
